<?xml version="1.0" standalone="no"?>
<!DOCTYPE svg PUBLIC "-//W3C//DTD SVG 20010904//EN"
 "http://www.w3.org/TR/2001/REC-SVG-20010904/DTD/svg10.dtd">
<svg version="1.0" xmlns="http://www.w3.org/2000/svg"
 width="198.000000pt" height="209.000000pt" viewBox="0 0 198.000000 209.000000"
 preserveAspectRatio="xMidYMid meet">

<g transform="translate(0.000000,209.000000) scale(0.100000,-0.100000)"
fill="#000000" stroke="none">
<path d="M300 2042 c8 -4 15 -14 15 -22 0 -10 8 -14 25 -12 17 1 21 -1 12 -7
-10 -6 -13 -30 -10 -89 3 -75 1 -82 -17 -85 -11 -2 26 -5 83 -6 80 -1 102 2
96 12 -27 45 -91 137 -113 160 -28 31 -72 57 -93 56 -9 0 -8 -2 2 -7z m40 -16
c0 -3 -4 -8 -10 -11 -5 -3 -10 -1 -10 4 0 6 5 11 10 11 6 0 10 -2 10 -4z"/>
<path d="M778 1964 c-28 -14 -58 -60 -58 -87 0 -10 21 -16 83 -20 46 -3 108
-15 140 -27 64 -24 133 -85 160 -142 21 -44 26 -46 55 -15 27 29 48 80 57 140
l7 47 -101 0 c-95 0 -120 8 -87 27 14 8 56 72 56 86 0 4 -64 7 -142 7 -107 -1
-150 -5 -170 -16z"/>
<path d="M536 1798 c4 -7 17 -26 29 -43 73 -99 81 -193 23 -257 -13 -13 -73
-78 -133 -144 -135 -145 -188 -220 -210 -294 -7 -25 -7 -25 26 6 97 88 129 94
506 94 l313 0 0 198 c0 222 -12 293 -59 352 -62 78 -139 100 -349 100 -120 0
-152 -3 -146 -12z m282 -94 c51 -35 8 -117 -50 -95 -42 16 -50 59 -18 91 24
24 38 25 68 4z"/>
<path d="M427 1095 c-97 -27 -184 -104 -217 -194 -20 -51 -21 -73 -18 -365 l3
-311 29 -58 c34 -66 89 -120 150 -148 39 -18 77 -19 704 -19 l663 0 47 24 c63
33 115 89 149 161 l28 60 3 433 3 432 -748 -1 c-588 -1 -758 -4 -796 -14z
m156 -208 c13 -9 16 -20 11 -43 -6 -31 -6 -31 -35 -17 -37 18 -83 14 -87 -9
-3 -14 12 -25 58 -45 96 -41 116 -111 48 -168 -25 -21 -39 -25 -97 -25 -77 0
-105 14 -99 51 2 18 8 23 23 21 74 -13 102 -13 114 2 18 21 7 33 -56 63 -67
32 -88 60 -79 108 10 49 53 75 127 75 30 0 63 -6 72 -13z m286 -2 c16 -8 31
-22 35 -30 3 -9 6 -75 6 -146 l0 -129 -40 0 c-29 0 -40 4 -40 15 0 19 -9 19
-34 0 -32 -24 -99 -19 -125 9 -31 33 -36 84 -12 123 15 24 33 36 72 47 29 9
61 16 70 16 10 0 21 5 25 12 10 16 -35 50 -60 45 -89 -21 -88 -21 -84 9 2 20
10 30 28 35 45 12 130 9 159 -6z m177 0 c5 -13 9 -13 34 0 16 8 47 15 69 15
61 0 69 -19 72 -180 l3 -135 -42 -3 -42 -3 0 109 c0 93 -3 113 -19 133 -16 21
-22 22 -45 11 -26 -12 -26 -12 -26 -132 l0 -121 -42 3 -43 3 -3 152 c-2 138
-1 152 15 156 37 10 64 7 69 -8z m459 -20 c0 -28 -3 -30 -42 -33 l-43 -3 0
-125 0 -125 -42 3 -43 3 -3 122 -3 122 -42 3 c-37 3 -42 6 -43 28 0 14 1 29 4
33 2 4 61 6 130 5 l127 -3 0 -30z m218 24 c39 -18 47 -50 47 -184 l0 -125 -40
0 c-29 0 -40 4 -40 15 0 19 -9 19 -34 0 -11 -8 -37 -15 -59 -15 -76 0 -124 87
-81 148 20 30 59 49 117 57 37 6 47 11 47 26 0 30 -35 43 -85 30 -58 -15 -57
-15 -53 16 2 19 10 29 28 34 40 11 127 10 153 -2z m-1138 -383 c45 -19 75 -69
75 -123 l0 -43 -100 0 c-55 0 -100 -2 -100 -5 0 -4 7 -19 15 -34 24 -47 90
-62 158 -36 13 6 17 2 17 -18 0 -38 -24 -51 -99 -51 -104 0 -155 37 -171 125
-25 135 86 234 205 185z m520 0 c40 -17 66 -61 68 -119 l2 -42 -97 -3 c-89 -2
-98 -4 -98 -22 0 -23 36 -59 67 -67 23 -5 43 -2 91 12 19 7 22 4 22 -23 0 -28
-4 -32 -42 -42 -86 -24 -179 7 -210 70 -33 65 -18 171 30 213 40 36 112 46
167 23z m318 5 c39 -15 48 -54 45 -191 l-3 -125 -36 -3 -36 -3 -5 116 c-5 133
-16 157 -65 139 l-28 -10 3 -117 c4 -128 9 -117 -58 -121 l-25 -1 -6 150 c-3
83 -4 153 -2 158 3 4 22 7 44 7 27 0 39 -4 39 -15 0 -11 8 -11 43 5 48 22 57
23 90 11z m292 -5 c18 -8 38 -23 44 -34 6 -12 11 -75 11 -146 l0 -126 -40 0
c-28 0 -40 4 -40 14 0 11 -8 10 -37 -5 -66 -34 -135 -9 -148 52 -17 75 21 119
123 140 46 9 53 14 50 32 -4 26 -52 35 -100 18 -38 -13 -47 -8 -41 23 4 20 14
27 47 35 61 13 93 13 131 -3z m-935 -121 l0 -125 55 0 c54 0 55 0 55 -30 l0
-30 -94 0 -95 0 -3 148 c-2 81 -2 150 0 155 2 4 21 7 43 7 l39 0 0 -125z"/>
<path d="M752 724 c-48 -33 -11 -98 45 -78 24 8 28 16 31 52 3 40 2 42 -25 42
-16 0 -39 -7 -51 -16z"/>
<path d="M1605 715 c-29 -28 -31 -38 -9 -59 18 -18 47 -20 75 -6 14 8 19 21
19 50 0 38 -2 40 -30 40 -19 0 -40 -9 -55 -25z"/>
<path d="M493 455 c-11 -8 -23 -26 -25 -40 -5 -24 -4 -25 53 -25 52 0 59 2 59
20 0 22 -33 60 -53 60 -7 0 -22 -7 -34 -15z"/>
<path d="M1007 458 c-9 -7 -21 -25 -26 -40 l-11 -28 60 0 c57 0 60 1 60 24 0
14 -10 32 -22 40 -27 19 -39 20 -61 4z"/>
<path d="M1630 347 c-29 -10 -36 -18 -38 -44 -4 -41 22 -58 68 -42 29 11 31
14 28 52 -3 46 -10 50 -58 34z"/>
</g>
</svg>
